<svg width="43" height="43" viewBox="0 0 43 43" fill="none" xmlns="http://www.w3.org/2000/svg">
<path d="M19.0225 1.9201C20.4689 0.791469 22.4976 0.791468 23.944 1.9201L27.3358 4.56681C27.9068 5.01232 28.588 5.29448 29.3067 5.38317L33.5766 5.91006C35.3974 6.13474 36.8319 7.56927 37.0566 9.39008L37.5835 13.66C37.6722 14.3787 37.9543 15.0599 38.3999 15.6308L41.0466 19.0227C42.1752 20.4691 42.1752 22.4978 41.0466 23.9442L38.3999 27.336C37.9543 27.907 37.6722 28.5881 37.5835 29.3069L37.0566 33.5768C36.8319 35.3976 35.3974 36.8321 33.5766 37.0568L29.3067 37.5837C28.588 37.6724 27.9068 37.9545 27.3358 38.4L23.944 41.0467C22.4976 42.1754 20.4689 42.1754 19.0225 41.0468L15.6307 38.4C15.0597 37.9545 14.3785 37.6724 13.6598 37.5837L9.3899 37.0568C7.56909 36.8321 6.13455 35.3976 5.90987 33.5768L5.38299 29.3069C5.2943 28.5881 5.01214 27.907 4.56662 27.336L1.91992 23.9442C0.791286 22.4978 0.791285 20.4691 1.91992 19.0227L4.56662 15.6308C5.01214 15.0599 5.2943 14.3787 5.38299 13.66L5.90987 9.39008C6.13455 7.56927 7.56909 6.13474 9.38989 5.91006L13.6598 5.38317C14.3785 5.29448 15.0597 5.01232 15.6307 4.56681L19.0225 1.9201Z" fill="url(#paint0_linear_1_294)"/>
<path d="M15 21.8629L18.7993 25.0629L27 17.0629" stroke="white" stroke-width="2" stroke-linecap="round" stroke-linejoin="round"/>
<defs>
<linearGradient id="paint0_linear_1_294" x1="18.9997" y1="65.9999" x2="73.4997" y2="34.4999" gradientUnits="userSpaceOnUse">
<stop stop-color="#FAA677"/>
<stop offset="1" stop-color="#FAA677" stop-opacity="0.47"/>
</linearGradient>
</defs>
</svg>
